<svg xmlns="http://www.w3.org/2000/svg" version="1.1" xmlns:xlink="http://www.w3.org/1999/xlink" xmlns:svgjs="http://svgjs.dev/svgjs" width="1980" height="1080" preserveAspectRatio="none" viewBox="0 0 1980 1080"><g mask="url(&quot;#SvgjsMask1771&quot;)" fill="none"><rect width="1980" height="1080" x="0" y="0" fill="rgba(254, 255, 233, 1)"></rect><path d="M 0,246 C 79.2,261.6 237.6,341.4 396,324 C 554.4,306.6 633.6,152.2 792,159 C 950.4,165.8 1029.6,340.6 1188,358 C 1346.4,375.4 1425.6,231.8 1584,246 C 1742.4,260.2 1900.8,392.4 1980,429L1980 1080L0 1080z" fill="rgba(255, 247, 233, 1)"></path><path d="M 0,979 C 132,922 396,711.8 660,694 C 924,676.2 1056,880 1320,890 C 1584,900 1848,773.2 1980,744L1980 1080L0 1080z" fill="rgba(251, 224, 235, 1)"></path></g><defs><mask id="SvgjsMask1771"><rect width="1980" height="1080" fill="#ffffff"></rect></mask></defs></svg>